<svg width="179" height="28" viewBox="0 0 179 28" fill="none" xmlns="http://www.w3.org/2000/svg">
<path d="M40.1872 1.4009C39.0058 -0.524304 34.8491 0.263279 28.9204 2.93231C28.5484 2.6479 28.1546 2.3635 27.7609 2.12285C24.6324 0.17577 20.7382 -0.546181 16.866 0.438297C10.1934 2.1666 5.88357 8.46726 6.47425 15.1398C6.51801 15.6211 6.58364 16.0806 6.67115 16.5619C1.63937 20.7185 -0.876516 24.2845 0.282981 26.1879C1.48623 28.1349 6.21173 27.8724 12.5999 25.5315C16.0784 24.2627 20.0382 22.3812 24.173 19.9091C27.8046 17.7432 30.4955 15.7743 32.9677 13.5209C29.9923 16.8463 26.9733 19.384 23.6479 21.528C21.8977 22.6437 19.5788 24.2845 14.0219 26.3848C16.6909 27.7412 20.2788 28.3756 23.8011 27.4568C30.6049 25.7066 34.9366 19.2309 34.1709 12.4489C37.1243 9.62676 39.1152 7.00148 39.9903 4.90126C40.6028 3.43549 40.6685 2.21036 40.1872 1.4009ZM4.48342 21.703C4.04587 20.9811 5.00848 19.6247 6.97743 17.8745C7.1087 18.312 7.23996 18.7277 7.41498 19.1215C7.63375 19.6684 7.8744 20.1935 8.1588 20.6967C8.3557 21.0686 8.59635 21.4405 8.837 21.7905C6.49613 22.3812 4.89909 22.3812 4.48342 21.703ZM32.7926 7.63593C32.5957 7.26401 32.3988 6.8921 32.1582 6.54206C31.8082 5.97325 31.4144 5.42632 30.9768 4.92314C30.6924 4.59498 30.3861 4.26682 30.0798 3.96054C32.8364 2.86668 34.7397 2.53852 35.1991 3.30422C35.6586 4.02617 34.7178 5.64509 32.7926 7.63593Z" fill="url(#paint0_linear)"/>
<path d="M53.423 11.3342C51.5853 11.3342 50.3383 12.7343 50.3383 14.5282C50.3383 16.3222 51.6072 17.7442 53.4011 17.7442C54.5387 17.7442 55.4357 17.3504 56.1358 16.6503L57.5578 18.7287C56.6827 19.6913 55.0857 20.3914 53.3355 20.3914C50.0539 20.3914 47.5161 17.7661 47.5161 14.5501C47.5161 11.3123 50.0539 8.68701 53.2917 8.68701C55.1951 8.68701 56.6827 9.34333 57.6453 10.3497L56.0264 12.3624C55.3482 11.6623 54.5169 11.3342 53.423 11.3342Z" fill="#0E0227"/>
<path d="M59.7036 14.5267C59.7036 11.2888 62.2414 8.66357 65.4573 8.66357C68.6733 8.66357 71.2329 11.2888 71.2329 14.5267C71.2329 17.7427 68.6733 20.3679 65.4573 20.3679C62.2414 20.3679 59.7036 17.7427 59.7036 14.5267ZM68.3889 14.5048C68.3889 12.7328 67.1638 11.3107 65.4792 11.3107C63.7728 11.3107 62.5258 12.7109 62.5258 14.5048C62.5258 16.2987 63.7728 17.7208 65.4792 17.7208C67.1638 17.7208 68.3889 16.2987 68.3889 14.5048Z" fill="#0E0227"/>
<path d="M85.7368 4.1792V20.0621H82.8928V18.8589C82.0833 19.7996 80.9457 20.3903 79.5237 20.3903C76.5921 20.3903 74.2075 17.9838 74.2075 14.549C74.2075 11.2018 76.439 8.68592 79.5237 8.68592C80.9676 8.68592 82.1052 9.21098 82.8928 10.1079V4.1792H85.7368ZM82.8928 14.5053C82.8928 12.7332 81.6677 11.3112 79.9831 11.3112C78.2767 11.3112 77.0297 12.7113 77.0297 14.5053C77.0297 16.2992 78.2767 17.7212 79.9831 17.7212C81.6677 17.7212 82.8928 16.2992 82.8928 14.5053Z" fill="#0E0227"/>
<path d="M89.4536 14.5267C89.4536 11.2888 91.8601 8.66357 95.0323 8.66357C98.2045 8.66357 100.589 11.1138 100.589 14.286C100.589 14.6361 100.567 15.0299 100.524 15.2049H92.3195C92.6039 16.7582 93.7634 17.852 95.4918 17.852C96.6075 17.852 97.5482 17.3707 98.1827 16.6925L99.6266 18.6177C98.7952 19.5803 97.2201 20.346 95.3605 20.346C91.9476 20.3679 89.4536 17.7426 89.4536 14.5267ZM92.3852 13.4547H97.7232C97.3951 11.8795 96.4106 11.0701 95.098 11.0701C93.6759 11.0701 92.6915 12.0327 92.3852 13.4547Z" fill="#0E0227"/>
<path d="M107.002 20.0616H104.18V8.99173H107.002V10.195C107.615 9.27614 108.556 8.66357 109.693 8.66357C110.437 8.66357 111.028 8.88235 111.465 9.21051L110.284 11.8795C109.912 11.5733 109.365 11.3982 108.84 11.3982C107.702 11.3982 107.002 12.339 107.002 13.8485V20.0616Z" fill="#0E0227"/>
<path d="M122.271 16.9118C122.271 18.7714 120.674 20.3684 117.677 20.3684C115.576 20.3684 113.979 19.6027 113.039 18.5088L114.614 16.7149C115.467 17.6556 116.539 18.1151 117.852 18.1151C118.945 18.1151 119.492 17.6556 119.492 16.9556C119.492 14.9647 113.564 15.9492 113.564 11.9675C113.564 10.283 114.986 8.66406 117.808 8.66406C119.799 8.66406 121.374 9.34226 122.205 10.4799L120.608 12.1426C119.864 11.2675 118.945 10.9174 117.873 10.9174C116.911 10.9174 116.32 11.355 116.32 11.9457C116.32 13.9146 122.271 12.777 122.271 16.9118Z" fill="#0E0227"/>
<path d="M128.748 8.99173V10.195C129.558 9.25426 130.696 8.66357 132.118 8.66357C135.049 8.66357 137.434 11.0701 137.434 14.5048C137.434 17.852 135.202 20.3679 132.118 20.3679C130.674 20.3679 129.536 19.8429 128.748 18.9459V24.5684H125.926V8.99173H128.748ZM128.748 14.5267C128.748 16.2988 129.995 17.7208 131.68 17.7208C133.386 17.7208 134.612 16.3206 134.612 14.5267C134.612 12.7328 133.386 11.3107 131.68 11.3107C129.995 11.3326 128.748 12.7546 128.748 14.5267Z" fill="#0E0227"/>
<path d="M149.115 18.86C148.306 19.8007 147.168 20.3914 145.746 20.3914C142.815 20.3914 140.43 17.9849 140.43 14.5501C140.43 11.2029 142.662 8.68701 145.746 8.68701C147.19 8.68701 148.328 9.21207 149.115 10.109V8.99329H151.96V20.0413H149.115V18.86ZM149.115 14.5064C149.115 12.7343 147.89 11.3123 146.206 11.3123C144.499 11.3123 143.252 12.7124 143.252 14.5064C143.252 16.3003 144.499 17.7223 146.206 17.7223C147.89 17.7223 149.115 16.3003 149.115 14.5064Z" fill="#0E0227"/>
<path d="M161.583 11.3342C159.745 11.3342 158.498 12.7343 158.498 14.5282C158.498 16.3222 159.767 17.7442 161.561 17.7442C162.699 17.7442 163.596 17.3504 164.296 16.6503L165.718 18.7287C164.843 19.6913 163.246 20.3914 161.496 20.3914C158.214 20.3914 155.676 17.7661 155.676 14.5501C155.676 11.3123 158.214 8.68701 161.452 8.68701C163.355 8.68701 164.843 9.34333 165.805 10.3497L164.187 12.3624C163.486 11.6623 162.655 11.3342 161.583 11.3342Z" fill="#0E0227"/>
<path d="M167.863 14.5272C167.863 11.2893 170.27 8.66406 173.442 8.66406C176.614 8.66406 178.999 11.1143 178.999 14.2865C178.999 14.6366 178.977 15.0304 178.933 15.2054H170.729C171.014 16.7587 172.173 17.8525 173.901 17.8525C175.017 17.8525 175.958 17.3712 176.592 16.693L178.036 18.6182C177.205 19.5808 175.63 20.3465 173.77 20.3465C170.357 20.3684 167.863 17.7431 167.863 14.5272ZM170.795 13.4552H176.111C175.783 11.88 174.798 11.0706 173.486 11.0706C172.086 11.0706 171.101 12.0332 170.795 13.4552Z" fill="#0E0227"/>
<defs>
<linearGradient id="paint0_linear" x1="20.2544" y1="0" x2="20.2544" y2="27.889" gradientUnits="userSpaceOnUse">
<stop stop-color="#6E00FF"/>
<stop offset="1" stop-color="#8324FF"/>
</linearGradient>
</defs>
</svg>
